<?xml version="1.0" encoding="utf-8"?>
<!-- Generator: Adobe Illustrator 27.8.1, SVG Export Plug-In . SVG Version: 6.00 Build 0)  -->
<svg version="1.1" id="Lag_1" xmlns="http://www.w3.org/2000/svg" xmlns:xlink="http://www.w3.org/1999/xlink" x="0px" y="0px"
	 viewBox="0 0 4000 4000" style="enable-background:new 0 0 4000 4000;" xml:space="preserve">
<style type="text/css">
	.st0{fill:#EB5E55;}
	.st1{fill:#FCDB88;}
	.st2{fill:#FFFFFF;}
	.st3{fill:#024D80;}
	.st4{font-family:'Montserrat-Black';}
	.st5{font-size:195.819px;}
	.st6{letter-spacing:11;}
	.st7{font-family:'Montserrat-Regular';}
	.st8{font-size:114.9929px;}
	.st9{letter-spacing:6;}
</style>
<path class="st0" d="M2040.5,1536.7c303.6,0,575.3,67.8,758.3,174.8c-7.2-412.8-343.9-745.2-758.3-745.2
	c-414.5,0-751.1,332.4-758.3,745.2C1465.2,1604.5,1736.9,1536.7,2040.5,1536.7z"/>
<path class="st0" d="M1282.2,1817.9c14.9,49.8,34.6,97.5,58.5,142.7c183.8-93.9,429.5-151.4,699.8-151.4
	c270.3,0,516,57.5,699.8,151.4c23.9-45.1,43.6-92.9,58.5-142.7c-188.4-113-458.1-184-758.3-184
	C1740.3,1633.9,1470.5,1704.9,1282.2,1817.9z"/>
<path class="st0" d="M1385.2,2064.9c0.1,0.4,0.3,0.9,0.4,1.3c19.6,65.1,91.2,99.9,154.8,76c142.5-53.5,314.6-84.9,500.2-84.9
	c185.5,0,357.6,31.4,500.2,84.9c63.6,23.9,135.2-11,154.8-76l0.4-1.3c-162.8-97.6-395.9-159-655.3-159
	C1781,1905.9,1547.9,1967.3,1385.2,2064.9z"/>
<g>
	<g>
		<g>
			<g>
				<g>
					<g>
						<polygon class="st1" points="2284.2,817.3 2426.9,1386.3 2392.6,1426 2174.1,944.8 						"/>
						<path class="st1" d="M2288.2,997.1l-11.4-9.8c-7.4-6.4-8.3-17.7-1.8-25.1l38.5-44.6c6.4-7.4,17.7-8.3,25.1-1.8l11.4,9.8
							c7.4,6.4,8.3,17.7,1.8,25.1l-38.5,44.6C2306.9,1002.7,2295.6,1003.5,2288.2,997.1z"/>
						<path class="st1" d="M2329.4,1167.4l-11.4-9.8c-7.4-6.4-8.3-17.7-1.8-25.1l38.5-44.6c6.4-7.4,17.7-8.3,25.1-1.8l11.4,9.8
							c7.4,6.4,8.3,17.7,1.8,25.1l-38.5,44.6C2348.1,1173,2336.8,1173.8,2329.4,1167.4z"/>
						<polygon class="st1" points="2216.5,1021.9 2185.6,1057.6 2225.3,1038.1 						"/>
						<polygon class="st1" points="2239.8,1073.2 2208.9,1108.9 2248.6,1089.4 						"/>
						<polygon class="st1" points="2265.9,1121.3 2235,1157.1 2274.6,1137.5 						"/>
						<polygon class="st1" points="2285.7,1176.7 2254.8,1212.4 2294.5,1192.9 						"/>
						<polygon class="st1" points="2309,1228 2278.1,1263.8 2317.8,1244.2 						"/>
					</g>
					<polygon class="st1" points="1857.6,1249.4 1916.8,1389.7 1955.1,1353.4 1939.4,1197.2 					"/>
				</g>
				<g>
					<g>
						<polygon class="st1" points="2221.7,763.4 1638,705.2 1603.7,744.9 2111.6,890.9 						"/>
						<path class="st1" d="M2043.3,785.7l11.4,9.8c7.4,6.4,18.7,5.6,25.1-1.8l38.5-44.6c6.4-7.4,5.6-18.7-1.8-25.1l-11.4-9.8
							c-7.4-6.4-18.7-5.6-25.1,1.8l-38.5,44.6C2035,768,2035.8,779.2,2043.3,785.7z"/>
						<path class="st1" d="M1868.8,769.8l11.4,9.8c7.4,6.4,18.7,5.6,25.1-1.8l38.5-44.6c6.4-7.4,5.6-18.7-1.8-25.1l-11.4-9.8
							c-7.4-6.4-18.7-5.6-25.1,1.8l-38.5,44.6C1860.5,752.1,1861.4,763.3,1868.8,769.8z"/>
						<polygon class="st1" points="2029.2,860.2 1998.4,895.9 2011.9,853.9 						"/>
						<polygon class="st1" points="1975.1,844.6 1944.2,880.4 1957.7,838.3 						"/>
						<polygon class="st1" points="1923.6,825.9 1892.8,861.6 1906.3,819.6 						"/>
						<polygon class="st1" points="1866,814.4 1835.1,850.1 1848.6,808 						"/>
						<polygon class="st1" points="1811.8,798.8 1780.9,834.5 1794.5,792.5 						"/>
					</g>
					<g>
						<polygon class="st1" points="1856.5,1248.5 1709.1,1210.4 1739.4,1167.2 1896.2,1159.9 						"/>
					</g>
				</g>
			</g>
			<polygon class="st1" points="1646.2,718.3 2197.4,781 2169.7,813.1 			"/>
			<polygon class="st1" points="2415.8,1382.6 2273.3,846.5 2245.6,878.6 			"/>
		</g>
		<path class="st1" d="M2352.6,767.4c52.9-61.3,67.1-88.6,73.9-110.8c9.9-32-0.8-53-6.8-58.4l0,0c0,0-0.1,0-0.1-0.1
			c0,0-0.1-0.1-0.1-0.1l0,0c-6.2-5.1-28.5-12.6-58.7,1.8c-21,10-45.9,28-98.8,89.3c-52.9,61.3-255.6,294.4-337.3,406.2
			c-81.6,111.8-116.1,200.9-113.7,203c1.5,1.3,2.1,1.8,2.3,2c0,0,0.1,0,0.2,0.2c0.2,0.2,0.8,0.7,2.3,2c2.4,2.1,85.5-45,184.2-142.1
			C2098.7,1063.3,2299.7,828.7,2352.6,767.4z"/>
		<path class="st2" d="M2327,641.4c0,0,44.6-32.9,67-13.6c22.4,19.3-5.9,69-5.9,69s41.2-45.8,32.2-81.5
			C2411.4,579.7,2352.3,611.7,2327,641.4z"/>
	</g>
</g>
<polygon class="st2" points="2191.4,1144.4 2171.3,1095 1880.4,1511.5 "/>
<polygon class="st2" points="2241.6,1267.5 2223.2,1222.3 1977.6,1511.5 "/>
<polygon class="st2" points="2292.1,1391.4 2275.3,1350.2 2111.6,1514.8 "/>
<g>
	<g>
		<text transform="matrix(1 0 0 1 1365.9196 2623.9229)" class="st3 st4 st5 st6">Rønne Rejser</text>
	</g>
	<g>
		<text transform="matrix(1 0 0 1 1347.2218 2853.5596)" class="st3 st7 st8 st9">Dine drømme med Rønne</text>
	</g>
</g>
</svg>
